<?xml version="1.0" encoding="utf-8"?>
<!-- Generator: Adobe Adobe Illustrator 24.2.0, SVG Export Plug-In . SVG Version: 6.00 Build 0)  -->
<svg version="1.1" id="Layer_1" xmlns="http://www.w3.org/2000/svg" xmlns:xlink="http://www.w3.org/1999/xlink" x="0px" y="0px"
	 viewBox="0 0 1728 1296" style="enable-background:new 0 0 1728 1296;" xml:space="preserve";>
<g>
	<g fill="none" fill-rule "evenodd" stroke="#000" stroke-linecap="round" stroke-linejoin="round" stroke-width="3" transform="translate(2 2)">
		<path class="autograph__path" d="M582.46,845.64c-1.82,23.39-2.91,46.82-2.62,70.28c0.02,1.93,3.6-0.56,4.04-0.9c1.46-1.17,3.49-3.2,3.46-5.24
			c-0.29-23.46,0.8-46.9,2.62-70.28c0.15-1.92-3.69,0.63-4.04,0.9C584.34,841.67,582.63,843.53,582.46,845.64L582.46,845.64z"/>
	</g>
</g>
<g>
	<g>
		<path class="autograph__path" d="M572.78,336.6c16.96-19.77,31.22-42.78,39.45-67.58c7.84-23.61,10.01-54.69-9.04-73.92
			c-19.14-19.33-45.02,2.48-58.12,18.01c-17.57,20.83-28.49,47.36-36.02,73.29c-16.53,56.95-17.1,116.79-23.41,175.34
			c-5.79,53.68-14.23,107.57-27.76,159.86c-13.79,53.31-33.51,107.1-67.28,151.22c-17.05,22.28-37.55,42.08-63.02,54.4
			c-25.85,12.51-55.34,17.28-83.67,11.88c-57.12-10.89-94.48-60.72-115.38-111.66c-20.19-49.21-28.51-103.99-15.03-156.05
			c12.88-49.71,43.47-93.37,82.77-125.93c39.44-32.68,87.77-55.21,138.4-63.4c12.22-1.97,24.55-3.05,36.93-3.21
			c2.06-0.03,4.03-1.95,5.24-3.46c0.33-0.42,2.78-4.06,0.9-4.04c-50.62,0.66-100.25,16.55-143.5,42.48
			c-44.01,26.38-82.08,63.8-106.83,108.93c-25.31,46.16-33.6,98.71-24.13,150.44c9.58,52.33,32.89,107.87,73.75,143.44
			c21.23,18.48,47.95,30.07,76.12,31.9c28.04,1.82,56.05-5.6,80.4-19.36c47.56-26.88,80.11-76.27,101.89-125.07
			c22.97-51.48,36.17-106.91,45.63-162.3c4.49-26.27,8.25-52.7,11.31-79.17c3.39-29.32,5.08-58.81,7.98-88.18
			c2.93-29.75,6.9-59.57,14.82-88.44c7.35-26.79,18.23-56.02,37.86-76.38c7.94-8.24,19.3-16.92,31.5-14.24
			c13.32,2.92,21.06,18.26,24.05,30.34c6.77,27.26-4.7,56.46-18.36,79.72c-6.35,10.81-13.62,21.05-21.79,30.56
			c-0.77,0.9-2.53,3.24-0.9,4.04C569.04,340.8,572.07,337.43,572.78,336.6L572.78,336.6z"/>
	</g>
</g>
<g>
	<g>
		<path class="autograph__path" d="M551.69,368.96c-9.06,17.46-18.37,34.76-26.29,52.78c-8.91,20.24-17.84,42.36-18.55,64.75
			c-0.29,9.22,1.31,18.97,7.72,26.02c0.34,0.25,0.72,0.3,1.13,0.16c28.61-7.77,48.25-34.17,65.6-56.42
			c4.63-5.94,9.51-11.73,12.85-18.53c2.03-4.14,4.17-9.53,3.25-14.25c-2-10.27-13.66-1.58-17.51,2.34
			c-7.68,7.83-12.73,18.37-17.14,28.32c-3.94,8.9-7.86,18.8-7.75,28.69c0.11,9.56,6.37,15.13,15.85,15.05
			c10.01-0.09,18.62-6.53,25.18-13.54c17.66-18.89,25.47-44.45,35.45-67.71c0.79-1.84-0.11-2.35-1.8-1.8c-1.99,0.65-4.15,3.15-5,5
			c-15.84,34.56-26.84,71.35-40.24,106.89c-12.55,33.3-19.83,68.68-36.63,100.28c-0.98,1.84,0.24,2.31,1.8,1.8
			c2.09-0.68,4.01-3.14,5-5c16.81-31.63,24.08-66.97,36.63-100.28c6.52-17.31,12.95-34.59,19.02-52.07
			c6.44-18.52,13.04-36.98,21.21-54.82c-2.27,1.07-4.53,2.13-6.8,3.2c-5.52,12.86-10.22,26.03-16.43,38.6
			c-5.45,11.05-13.05,27.09-25.86,31.09c-5.38,1.68-12.83,1.35-16.84-3.1c-3.65-4.05-3.41-10.29-2.57-15.3
			c1.98-11.93,7.56-23.49,13.41-33.98c1.39-2.49,8.11-15.37,12.62-9.77c4.04,5.02-2.09,14.9-4.84,18.94
			c-5.4,7.94-11.82,15.44-17.89,22.88c-6.19,7.58-12.66,15.02-20.05,21.47c-3.5,3.05-7.17,5.88-11.13,8.31
			c-2.07,1.27-4.22,2.42-6.43,3.43c-1.69,0.77-5.02,2.9-6.85,2.55c-4.1-0.78-6.21-10.3-6.82-13.79c-2.3-13.12,1-27,4.74-39.54
			c9-30.21,24.29-57.99,38.75-85.83c0.96-1.84-0.22-2.31-1.8-1.8C554.62,364.63,552.66,367.1,551.69,368.96L551.69,368.96z"/>
	</g>
</g>
<g>
	<g>
		<path class="autograph__path" d="M629.04,433.6c5.29-6.09,13.19-15.55,22.18-15.61c5.43-0.04,8.75,4.37,10.09,9.2c3.32,11.96-1.04,29.86-11.87,36.9
			c-3.25,2.11-10.17,5.77-13.91,2.83c-3.37-2.65-1.07-8.33,0.51-11.29c6.51-12.27,21.45-17.36,33.26-22.94
			c12.71-6,23.35-13.75,33.39-23.59c11.24-11.01,21.18-23.23,31.56-35.02c10.4-11.82,20.43-23.93,29.57-36.76
			c10.89-15.29,21.93-32.32,26.3-50.83c3.21-13.61,0.15-31.81-16.4-34.72c-8.59-1.51-16.58,4.49-22.19,10.3
			c-7.01,7.25-12.23,16.07-16.87,24.96c-12.42,23.79-23.37,48.33-32.27,73.65c-10.92,31.07-19.26,62.97-27.21,94.9
			c-1.95,7.82-3.87,15.64-5.81,23.46c-0.69,2.8,3.37,0.25,3.98-0.24c17.88-14.53,24.85-36.71,39.38-53.86
			c6.11-7.21,14.55-13.11,23.65-15.94c3.3-1.02,7.39-1.86,10.63-0.16c4.15,2.18,5.11,7.6,5.04,11.86
			c-0.14,8.64-5.85,16.97-10.5,23.86c-5.86,8.69-12.49,16.83-19.08,24.97c-10.79,13.35-20.22,26.75-27.37,42.43
			c-6.9,15.12-18.54,43.07-2.55,56.44c0.52,0.43,1.44,0.12,1.94-0.14c20.63-10.57,26.24-35.23,35.71-54.44
			c12.67-25.69,28.45-49.7,49.26-69.53c0.77-0.73,3.45-3.62,2.26-4.81c-1.19-1.19-4.16,1.64-4.81,2.26
			c-18.82,17.93-34.03,39.03-46.51,61.77c-5.6,10.2-10.53,20.66-15.01,31.39c-3.89,9.33-8.13,21.64-17.71,26.55
			c0.65-0.05,1.29-0.09,1.94-0.14c-15.4-12.88-3.74-39.76,3.04-54.21c3.53-7.53,7.48-15,12.26-21.82
			c5.52-7.89,11.95-15.17,17.94-22.7c6.78-8.52,13.54-17.21,19.04-26.63c4.25-7.28,8.42-15.45,7.5-24.14
			c-2.33-21.98-29.85-6.18-39.31,1.16c-10.45,8.12-17.99,19.09-24.7,30.33c-6.53,10.95-12.54,22.98-22.61,31.16
			c1.33-0.08,2.66-0.16,3.98-0.24c8.18-33.03,16.18-66.14,26.44-98.6c9.23-29.19,21.13-56.8,34.5-84.28
			c6.44-13.23,19.24-42.76,37.95-28.22c14.04,10.91,7.48,30.98,1.23,44.35c-8.36,17.9-20.32,34.12-32.74,49.39
			c-4.09,5.03-8.31,9.95-12.6,14.81c-10.93,12.36-21.3,25.29-33.26,36.69c-5.62,5.36-11.56,10.21-18.42,13.88
			c-6.18,3.3-12.66,6.01-18.95,9.09c-11.93,5.84-23.35,13.45-30.33,25.08c-3.05,5.08-8.34,18.09,1.76,18.96
			c8.82,0.76,18.51-6.59,24.15-12.72c9.63-10.47,16.26-27.36,12.31-41.6c-1.39-5-4.53-9.71-10.04-10.46
			c-7.47-1.02-15.07,4.42-20.49,8.86c-4.97,4.06-9.37,8.75-13.57,13.59c-0.78,0.9-2.52,3.24-0.9,4.04
			C625.31,437.8,628.33,434.42,629.04,433.6L629.04,433.6z"/>
	</g>
</g>
<g>
	<g>
		<path class="autograph__path" d="M814.92,418.6c-0.75-4.78-2.91-8.84-6.36-12.22c-0.34-0.25-0.72-0.3-1.13-0.16c-9.45,3.06-16.9,13.71-22.45,21.34
			c-6.43,8.82-14.32,20.09-15.32,31.31c-0.73,8.19,6.23,12.23,13.27,8.66c9.37-4.76,16.06-15.02,21.55-23.6
			c5.38-8.4,10.08-18.31,15.04-26.28c-2.19,1.03-4.39,2.06-6.58,3.1c-2.41,9.59-7.78,18.39-7.96,28.52
			c-0.17,9.7,8.14,15.08,16.94,10.93c9.64-4.54,16.07-14.99,20.87-24.02c4.47-8.41,7.98-17.33,11.04-26.34
			c-2.46,1.61-4.93,3.21-7.39,4.82c-3.03,14.87-9.3,28.93-16.58,42.18c2.37-1.34,4.73-2.67,7.1-4.01
			c2.54-12.3,10.05-24.4,16.71-34.82c6.94-10.85,16.4-25.7,29.34-30.03c4.5-1.5,10.46-1.31,13.77,2.55
			c3.19,3.72,2.25,9.33,1.1,13.65c-3.7,13.92-12.6,26.72-20.59,38.49c-5.34,7.87-11.27,15.38-15.99,23.65
			c-5.92,10.37-11.32,21.07-16.14,31.99c-2.5,5.67-4.87,11.43-6.74,17.34c-1.16,3.68-2.6,8.07-2.15,11.99
			c1.19,10.24,15.37-1.11,18.67-3.76c37.62-30.18,48.2-79.98,74.93-118.12c-2.09,0.76-4.19,1.52-6.28,2.29
			c-4.78,10.4-32.06,52.84-9.85,58.09c10.44,2.47,21.8-6.1,29.22-12.31c11.13-9.31,20.68-20.73,28.55-32.89
			c6.46-9.98,14.65-23.28,13.54-35.74c-0.06-0.73-0.83-0.69-1.34-0.62c-11.95,1.56-22.07,13.35-28.69,22.45
			c-7.56,10.39-14.64,23.68-14.38,36.9c0.17,8.51,5.42,16.99,14.7,16.71c9.74-0.29,18.97-7.27,26.23-13.08
			c17.39-13.9,31.37-31.42,45.88-48.14c1.07-1.24,0.43-0.58,1.84-2c1.18-1.19,2.38-2.36,3.6-3.51c3.47-3.29,7.06-6.45,10.73-9.52
			c8.93-7.46,18.48-14.81,29.17-19.58c9.32-4.17,20.62-5.21,23.86,6.73c1.74,6.41-0.31,12.78-6.45,15.81
			c-5.92,2.92-12.18,1.43-13.38-5.62c-0.38-2.25-7.97,3.34-7.5,6.14c2.34,13.71,17.62,7.58,24.74,1.61
			c8.77-7.35,14.92-19.98,7.23-30.4c-5.54-7.51-16-4.89-23.3-1.94c-11.12,4.49-21.17,11.85-30.49,19.28
			c-7.36,5.86-14.63,12.07-21.16,18.87c-5.89,6.14-11.14,12.92-16.74,19.33c-8.01,9.17-16.32,18.23-25.61,26.13
			c-6.43,5.47-15.69,13.46-24.86,12.31c-13.94-1.75-11.53-20.53-8.11-29.69c2.89-7.74,7.27-15.06,12.67-21.3
			c3.97-4.59,8.94-9.28,15.2-10.1c-0.45-0.21-0.89-0.42-1.34-0.62c0.82,9.22-4.58,19-9.12,26.63c-6.34,10.67-14.13,20.7-23.28,29.1
			c-6.13,5.63-15.09,13.06-24.09,11.78c-11.16-1.58-8.04-14.7-5.54-22.14c3.75-11.18,9.97-21.21,14.87-31.87
			c0.77-1.68,0.16-2.13-1.39-1.95c-1.87,0.22-3.93,2.87-4.89,4.23c-12.22,17.44-20.95,36.99-30.4,55.99
			c-9.49,19.1-19.79,39.17-35.95,53.57c-2.26,2.01-8.4,8.55-12.11,7.65c-2.64-0.64-1.94-4.54-1.62-6.52
			c1.89-11.65,7.87-23.07,12.98-33.57c4.2-8.64,8.45-17.53,13.85-25.52c7-10.35,14.48-20.34,20.97-31.04
			c6.4-10.55,15.15-24.11,14.6-37.02c-0.51-11.99-13.71-12.65-22.33-8.66c-15.28,7.07-26.68,22.66-35.57,36.38
			c-7.58,11.69-16.08,25.37-18.95,39.22c-0.4,1.92,1.57,1.2,2.55,0.73c1.94-0.93,3.53-2.9,4.54-4.74
			c7.54-13.72,14.03-28.39,17.17-43.8c0.44-2.18-2.08-1.01-3.01-0.47c-1.92,1.1-3.67,3.2-4.38,5.29c-2.39,7.04-5.15,13.98-8.4,20.67
			c-2.88,5.92-7.24,16.57-14.29,18.6c-9.78,2.82-12.07-8.19-10.74-15.18c1.51-7.92,5.36-15.05,7.31-22.82
			c0.92-3.65-6.03,2.22-6.58,3.1c-8.22,13.19-13.9,29.2-25.5,39.99c-4.29,3.99-10.81,2.68-11.17-4
			c-0.49-8.83,6.69-18.79,11.41-25.65c3.16-4.6,6.63-9.16,10.67-13.04c0.62-0.6,2.11-2.49,3.02-2.51c0.29-0.01,2.05,2.66,2.63,3.59
			c1.42,2.3,2.21,4.68,2.63,7.32C807.78,426.97,815.37,421.42,814.92,418.6L814.92,418.6z"/>
	</g>
</g>
<g>
	<g>
		<path class="autograph__path" d="M936.14,386.62c2.05,0,4.04-1.96,5.24-3.46c0.34-0.43,2.78-4.04,0.9-4.04c-2.05,0-4.04,1.96-5.24,3.46
			C936.7,383.02,934.26,386.62,936.14,386.62L936.14,386.62z"/>
	</g>
</g>
<g>
	<g>
		<path class="autograph__path" d="M525.52,394.33c19.77-2.11,39.56-4.22,59.48-3.83c2.04,0.04,4.06-1.99,5.24-3.46c0.36-0.45,2.78-4,0.9-4.04
			c-20.35-0.4-40.59,1.78-60.8,3.93C527.89,387.2,522.05,394.7,525.52,394.33L525.52,394.33z"/>
	</g>
</g>
<g>
	<g>
		<path class="autograph__path" d="M810.99,508.5c1.33-7,3.97-21.59-5.8-24.04c-7.78-1.95-16.88,4.33-22.72,8.67c-10.17,7.57-17.54,17.53-24.57,27.97
			c-10.59,15.72-19.5,32.51-27.94,49.45c-17.66,35.47-35.72,70.81-50.05,107.79c-11.35,29.3-20.95,59.35-29.14,89.69
			c-3.49,12.93-6.56,26.15-7.43,39.55c-0.59,8.94-0.82,22.75,8.54,27.59c1.23,0.63,2.94-0.59,3.82-1.37
			c15.7-13.83,26.26-32.02,35.16-50.72c9.68-20.35,18.37-41.13,28.29-61.39c11.78-24.05,24.08-47.85,35.41-72.12
			c10.7-22.89,20.51-46.12,31.58-68.84c12.11-24.86,24.5-49.77,32.79-76.22c0.61-1.94-1.74-1.12-2.55-0.73
			c-1.79,0.86-3.78,2.91-4.54,4.74c-8.63,20.89-18.49,41.23-26.66,62.32c-9.23,23.82-18.6,49.53-18.96,75.39
			c-0.14,10.33,1.6,21.49,8.88,29.34c0.43,0.47,1.53,0.08,1.94-0.14c9.5-5.21,15.45-14.25,20.43-23.58
			c5.27-9.86,9.32-22.54,17.88-30.15c0.91-0.81,4.27-3.73,3.46-5.24c-0.84-1.56-3.14,0.11-4.04,0.9
			c-8.06,7.16-13.32,16.34-18.13,25.87c-2.5,4.95-4.84,9.99-7.62,14.79c-2.22,3.84-4.77,8.39-8.79,10.6
			c0.65-0.05,1.29-0.09,1.94-0.14c-14.28-15.41-8.08-42.39-3.49-60.4c6.44-25.27,16.54-49.51,27.01-73.33
			c4.31-9.81,8.86-19.54,12.96-29.44c-2.37,1.34-4.73,2.67-7.1,4.01c-7.19,22.95-17.67,44.72-28.16,66.31
			c-10.44,21.5-20.24,43.18-30.04,64.98c-19.72,43.9-42.81,86.16-62.24,130.2c-9.09,20.61-18.7,43.43-35.97,58.64
			c1.27-0.46,2.55-0.91,3.82-1.37c-7.59-3.92-8.34-13.87-8.31-21.44c0.05-11.21,2.35-22.43,4.94-33.29
			c5.98-25.11,13.87-50.04,22.36-74.38c12.3-35.28,27.95-68.69,44.4-102.17c7.69-15.65,15.12-31.44,23.33-46.83
			c8.11-15.2,16.9-30.84,28.06-44.05c5.1-6.04,12.83-12.56,20.83-14.01c12.36-2.25,10.46,13.89,9.03,21.4
			c-0.41,2.17,2.06,1.02,3.01,0.47C808.31,512.82,810.6,510.54,810.99,508.5L810.99,508.5z"/>
	</g>
</g>
<g>
	<g>
		<path class="autograph__path" d="M853.72,602.9c-1.9-9.64-6.71-26.69-19.53-18.44c-10.71,6.89-16.81,20.55-20.49,32.23c-2.07,6.56-7.23,23.31,0.78,28.09
			c4.36,2.6,10.3-0.79,14-3.09c11.25-7,18.12-18.27,24.27-29.68c4.02-7.46,7.72-15.07,12.19-22.28c5.3-8.56,10.39-17.25,15.07-26.16
			c9.66-18.41,17.88-38.2,20.12-59.03c0.1-0.96-0.21-1.52-1.28-1.28c-7.57,1.66-13.56,8.07-17.99,14.03
			c-6.09,8.19-10.48,17.6-14.29,27.03c-8.88,21.96-15.02,45.06-20.3,68.11c-3.78,16.49-7.7,33.16-10.78,49.79
			c-1.86,10.02-4.21,22-1.23,32.03c2.96,9.97,12.29,10.35,19.32,3.77c4.81-4.5,7.8-10.41,10.58-16.29
			c3.56-7.56,8.01-14.7,12.35-21.84c9.96-16.36,21.21-31.5,35.84-44c0.92-0.78,4.26-3.75,3.46-5.24c-0.85-1.58-3.13,0.13-4.04,0.9
			c-22.08,18.86-39.32,43.56-52.5,69.33c-1.99,3.89-3.72,10.94-7.29,13.64c-3.08,2.33-7.18-0.44-8.89-3.23
			c-4.58-7.46-2.53-19.18-1.34-27.26c2.29-15.5,6.35-30.85,9.62-46.18c4.33-20.22,9.38-40.35,15.88-59.98
			c3.68-11.13,7.83-22.24,13.4-32.58c2.89-5.37,6.8-13.22,13.36-14.66c-0.43-0.43-0.86-0.86-1.28-1.28
			c-3.5,32.55-21.18,59.7-36.99,87.42c-6.38,11.18-11.17,23.96-19.59,33.83c-2.73,3.2-8.31,8.11-13.06,7.5
			c-7.81-1-4.8-15.18-3.74-19.88c1.23-5.47,3.07-10.8,5.43-15.89c1.04-2.24,2.17-4.45,3.48-6.55c0.51-0.82,1.43-2.2,1.69-2.54
			c0.3-0.4,0.61-0.79,0.93-1.18c0.58-0.7,0.75-0.85,0.68-0.78c0.9-0.95,0.82-1.35,2.56-1.63c1.55-0.24,2.93,0.1,4.27,1.08
			c5.24,3.8,6.66,12.46,7.81,18.28C846.68,611.35,854.27,605.67,853.72,602.9L853.72,602.9z"/>
	</g>
</g>
<g>
	<g>
		<path class = "autograph__path" d="M946.84,587.38c0.07-3.63,0.23-10.23-3.88-12c-3.81-1.64-8.49,1.91-11.26,4.15c-9.69,7.84-17.11,19.79-21.68,31.27
			c-2.54,6.38-7.5,21.57,3.6,22.81c18.94,2.1,28.15-25.88,33.83-39.13c4.99-11.65,12.52-22.01,19.36-32.63
			c8.47-13.15,16.83-26.47,23.45-40.66c2.86-6.14,22.86-51.85,2.69-48.64c-18.3,2.92-26.21,27.02-31,41.96
			c-5.57,17.37-8.61,35.41-14.22,52.74c-7.4,22.86-16.05,45.29-22.62,68.42c-6.31,22.18-12.35,46.68-8.79,69.86
			c0.72,4.7,1.95,9.28,3.8,13.67c0.06,0.39,0.28,0.62,0.68,0.68c10.03-0.72,17.1-10.3,21.56-18.41c5.1-9.25,8.16-19.39,11.51-29.35
			c10.13-30.15,20.55-62.63,42.87-86.22c0.73-0.77,3.48-3.59,2.26-4.81c-1.17-1.17-4.19,1.61-4.81,2.26
			c-21.86,23.1-33.32,52.34-43.64,81.89c-3.73,10.68-6.88,21.71-11.4,32.09c-1.9,4.38-4.09,9.94-7.77,13.17
			c-1.22,1.07-3.12,2.32-4.34,1.14c-1.38-1.33-1.88-5.64-2.3-7.46c-5.67-24.41,1.41-51.26,8.16-74.71
			c6.95-24.14,16.24-47.5,23.64-71.49c5.8-18.82,8.75-38.37,15.77-56.86c2.59-6.81,6.01-18.37,13.87-20.75
			c11.89-3.6,7.65,14.09,6.1,20c-8.21,31.28-28.34,57.32-45.02,84.42c-5.8,9.42-9.16,19.95-14.15,29.78
			c-2.85,5.61-7.69,14.66-15.57,10.98c-9.27-4.33,1.29-23.1,4.35-28.31c2.75-4.68,6.77-10.37,10.01-13.1c0.94-0.8,1.97-1.78,3.3-1.7
			c1.59,0.11,2.47,1.04,3.14,2.45c1.2,2.53,1.07,5.88,1.02,8.59c-0.04,1.93,3.63-0.58,4.04-0.9
			C944.89,591.42,946.8,589.45,946.84,587.38L946.84,587.38z"/>
	</g>
</g>
<g>
	<g>
		<path class="autograph__path" d="M1003.52,580.98c9.47-8.04,22.62-19.66,16.79-33.44c-0.4-0.95-1.34-0.76-2.15-0.33c-8.62,4.62-14.72,14.08-19.32,22.4
			c-4.51,8.16-10.51,20.41-7.01,29.95c3.01,8.18,11.96,9.13,18.64,5.09c8.62-5.21,14.63-14.38,19.57-22.91
			c3-5.19,5.74-10.51,8.44-15.86c1.04-2.06,2.06-4.12,3.14-6.16c0.38-0.73,0.77-1.45,1.17-2.17c0.17-0.31,1.39-2.1,0.79-1.31
			c-1.86,0.44-3.71,0.88-5.57,1.31c-6.24,13.49-5.24,29.94-13.74,42.38c2.09-0.76,4.19-1.52,6.28-2.29
			c8.17-14.96,12.96-37.38,30.76-43.77c-0.45-0.21-0.89-0.42-1.34-0.62c1.28,11.24-4.56,22.09-3.99,33.33
			c0.65,12.82,14.91,8.34,22.54,4.31c10.63-5.61,19.36-14.88,27.14-23.85c10.11-11.66,19.01-24.44,26.92-37.68
			c7.87-13.16,14.93-26.9,20.1-41.36c3.62-10.11,7.39-22.18,5.12-33.02c-0.86-4.1-2.69-10.84-7.06-12.65
			c-4.05-1.68-8.41,1.77-11.2,4.37c-8.74,8.15-13.83,20.29-18.27,31.14c-6.49,15.86-11.59,32.41-16.27,48.88
			c-6.21,21.86-11.81,45.07-10.16,67.96c0.21,2.94,6.75-3.86,7.15-4.67c3.75-7.57,7.13-15.33,11.26-22.71
			c4.18-7.49,9.33-16.33,17.26-20.35c8.16-4.14,19.13-2.08,22.8,6.91c2.75,6.73,2.39,14.78-0.32,21.43
			c-2.59,6.36-15.57,33.38-24.18,18.42c-3.12-5.43,1.33-10.47,5.18-13.97c5.77-5.25,12.52-9.46,19.15-13.52
			c15.93-9.76,29.86-21.16,41.31-36.16c11.64-15.27,21.91-33.64,24.46-52.95c1.36-10.34,1.98-29.43-12.24-30.9
			c-8.61-0.89-27.91,5.94-26.74,17.35c0.48,4.72,5.12,8.48,8.6,11.13c5.45,4.18,11.54,7.54,17.63,10.68
			c9.68,5,20.43,8.44,29.83,13.89c0.46-1.27,0.91-2.55,1.37-3.82c-8.5,9.41-17.41,18.42-24.88,28.71
			c-6.87,9.46-12.85,20-12.31,32.02c0.35,7.67,3.07,15.97,12.05,11.59c8.73-4.27,15.36-13.4,20.68-21.21
			c-2.19,1.03-4.39,2.06-6.58,3.1c-1.95,5.45-3.61,11.07-4.42,16.82c-0.54,3.76-1.15,8.37,0.5,11.95
			c4.41,9.59,19.15-3.64,22.99-7.22c9.56-8.89,16.53-20.89,20.54-33.25c3.79-11.66,5.02-25.63-3.03-35.82
			c-0.4-0.51-1.57-0.04-1.94,0.14c-10.41,4.85-24.54,17-18.13,29.93c6.61,13.33,23.86,9.63,34.08,3.51c-1-0.16-2.01-0.32-3.01-0.47
			c-1.16,11.01-5.48,22.75-0.4,33.34c0.34,0.25,0.72,0.3,1.13,0.16c7.91-1.56,14.81-7.88,20.19-13.52
			c7.22-7.56,13.35-16.32,17.89-25.75c3.69-7.67,7.2-17.1,5.54-25.74c-1.59-8.24-9.4-14.83-17.84-11.79
			c-8.65,3.11-15.73,12.53-17.25,21.47c-1.48,8.68,3.34,18.75,12.56,20.58c8.97,1.78,18.4-4.15,25.29-9.17
			c7.49-5.45,14.23-11.93,20.39-18.84c20.39-22.86,39.41-55.54,33.57-87.32c-0.12-0.66-0.77-0.77-1.34-0.62
			c-21.88,5.79-32.41,30.89-38.47,50.38c-8.39,26.97-11.87,55.26-16.19,83.09c-1.84,11.88-3.51,24-7.07,35.51
			c-0.68,2.19,2.23,0.92,3.01,0.47c1.88-1.08,3.73-3.2,4.38-5.29c6.48-20.96,8.15-43.57,11.66-65.14c3.95-24.29,8-49.97,18.89-72.29
			c4.08-8.36,9.47-16.83,18.97-19.34c-0.45-0.21-0.89-0.42-1.34-0.62c4.69,25.51-7.58,51.35-22.67,71.23
			c-5.04,6.64-10.63,12.92-16.87,18.45c-5.84,5.17-12.92,10.84-20.87,12.06c-8.15,1.25-15.37-4.84-16.56-12.91
			c-1.01-6.84,2.75-17.49,11.45-14.61c7.69,2.54,9.89,11.39,8.89,18.5c-1.14,8.13-4.85,15.9-9.16,22.79
			c-4.41,7.04-10.01,14.72-17.28,19.06c-0.74,0.44-2.74,1.9-3.68,1.68c-1.84-0.43-2.14-7.06-2.16-9.19
			c-0.08-7.22,2-14.32,2.76-21.46c0.22-2.12-1.91-1.13-3.01-0.47c-7.98,4.78-19.29,6.16-26.09-1.42c-2.39-2.66-3.73-6.2-3.35-9.8
			c0.55-5.2,4.53-7.61,8.93-9.66c-0.65,0.05-1.29,0.09-1.94,0.14c13.06,16.52,1.73,44.73-11.39,57.91
			c-3.99,4.01-14.06,12.09-15.4,1.89c-1.04-7.95,2.04-16.83,4.67-24.2c0.6-1.67-1.28-1.25-2.1-0.99c-1.81,0.59-3.46,2.58-4.48,4.09
			c-2.81,4.12-7.85,12.85-13.42,13.68c-7.38,1.1-6.43-14.7-5.69-18.54c1.89-9.86,8.56-18.53,14.8-26.1
			c5.98-7.26,12.56-13.97,18.86-20.95c0.37-0.41,2.44-3.2,1.37-3.82c-8.39-4.87-18.01-7.97-26.71-12.31
			c-6.07-3.03-12.09-6.24-17.69-10.07c-3.77-2.57-8.46-5.74-10.5-9.99c-0.41-0.85-0.73-3.5-0.73-3.49c0.68,0.8-2.44,1.24-0.38,0.63
			c1.76-0.51,3.42-1.54,5.21-2.08c7.3-2.2,14.52-1.43,17.8,6.26c6.02,14.09-0.26,32.73-6.27,45.64
			c-9.35,20.07-24.23,38.6-43.33,50.09c-13.04,7.85-28.07,16.13-36.68,29.13c-3.24,4.88-5.24,11-1.15,16.01
			c4.3,5.26,10.46,3.67,15.42,0.28c6.35-4.34,11.24-10.88,15.18-17.38c3.51-5.78,7.12-12.24,8.69-18.89
			c1.89-8,0.96-19.98-6.11-25.36c-7.59-5.77-18.41-3.15-25.77,1.6c-17.73,11.44-25.88,32.88-34.83,50.97
			c2.38-1.56,4.77-3.11,7.15-4.67c-1.31-18.19,2.28-36.49,6.68-54.06c4.12-16.47,9.25-32.74,14.84-48.77
			c3.41-9.76,7.33-19.6,12.49-28.58c1.2-2.09,3.5-7.03,5.81-7.67c3.84-1.07,6.17,5.18,7.04,7.71c3.2,9.32,1.2,19.2-1.51,28.4
			c-3.76,12.75-9.56,24.92-15.93,36.56c-6.74,12.32-14.44,24.21-23.05,35.32c-6.73,8.68-14.08,17.55-23.02,24.06
			c-6.29,4.58-21.56,11.58-22.2-1.09c-0.57-11.22,5.28-22.03,3.99-33.33c-0.07-0.63-0.83-0.81-1.34-0.62
			c-24.48,8.79-31.1,33.7-42.38,54.36c-0.91,1.67-0.05,2.12,1.39,1.95c1.86-0.22,3.95-2.86,4.89-4.23
			c9.12-13.35,8.16-29.91,14.77-44.21c2.05-4.44-4.65,0.12-5.57,1.31c-3.77,4.91-6.24,10.83-9.03,16.32
			c-3.75,7.38-7.59,14.94-12.71,21.48c-3.74,4.77-8.78,8.61-14.59,4.35c-6.87-5.04-4.42-14.86-1.88-21.62
			c1.92-5.12,4.54-10,7.57-14.55c1.59-2.38,3.74-6.23,6.36-7.63c-0.72-0.11-1.43-0.22-2.15-0.33c4.28,10.12-2.59,16.78-9.87,22.97
			c-0.92,0.78-4.26,3.75-3.46,5.24C1000.33,583.47,1002.61,581.75,1003.52,580.98L1003.52,580.98z"/>
	</g>
</g>
<g>
	<g>
		<path class="autograph__path" d="M1331.74,517.83c12.09-5.47,23.7-12.71,32.9-22.35c-0.85-0.85-1.7-1.7-2.55-2.55c-9.51,10.25-21.92,16.9-33.11,25.06
			c-0.69,0.5-6.97,7.37-3.1,6.58c3.73-0.76,7.33-1.89,10.97-2.99c2.38-0.72,5.32-1.94,7.86-1.55c7.12,1.1,3.81,14.85,2.92,19.2
			c-3.81,18.6-15.14,40.4-4.61,58.71c0.34,0.25,0.72,0.3,1.13,0.16c13.59-2.98,18.89-20.7,24.37-31.53
			c4.62-9.12,9.09-18.32,14.2-27.17c3.07-5.3,6.11-13.55,12.51-15.23c10.88-2.85,20.82-7.77,25.63-18.71
			c1.37-3.11,2.23-7.54-1.62-9.14c-4.53-1.89-10.67,0.82-14.31,3.48c-9.61,7.02-17.24,20.42-17.92,32.35c-0.27,4.82,1.35,10,6,12.22
			c4.58,2.18,10.08,0.5,14.49-1.3c11.48-4.69,21.79-13.26,31.39-20.95c13.83-11.08,26.93-23.11,41.56-33.15
			c8.04-5.52,16.55-10.5,25.76-13.81c7.7-2.77,16.15-4.91,23.4,0.23c2.99,2.12,5.25,5.17,5.77,8.85c0.33,2.35-0.21,4.3-0.78,6.54
			c-0.74,2.9-0.72,0.81,0.19,0.37c-0.73,0.35-1.46,0.6-2.24,0.8c-4.85,1.2-13.01-0.89-10.46-7.47c1.82-4.7-5.93,0.97-6.8,3.2
			c-2.21,5.71-0.72,10.73,5.79,11.92c5.95,1.09,12.09-1.63,16.22-5.83c4.93-5.01,7.51-13.23,4.28-19.8
			c-3.34-6.78-11.58-9.95-18.79-9.25c-9.23,0.9-18.68,5.37-26.72,9.74c-9,4.89-17.4,10.76-25.51,16.99
			c-15.38,11.81-29.6,25.05-45.4,36.33c-5.74,4.1-12.36,8.93-19.53,9.95c-7.86,1.11-11.87-5.42-10.99-12.6
			c0.79-6.41,4.34-16.84,10.19-20.45c4.82-2.97,12.32-1.14,8.61,5.26c-3.28,5.67-10.36,5.62-15.89,7.58
			c-7.26,2.57-11.89,9.31-15.88,15.52c-6.39,9.95-11.76,20.52-17.08,31.07c-2.38,4.72-4.89,9.39-7.12,14.17
			c-1.36,2.91-3.3,9.76-6.16,11.4c-1.31,0.75-0.74,0.98-1.89-0.01c-0.77-0.66-1.53-3.5-1.85-4.57c-0.79-2.63-1.17-5.38-1.27-8.12
			c-0.22-5.66,0.76-11.29,2.02-16.79c2.48-10.84,6.64-21.4,7.77-32.52c0.51-5.09,1.57-14.38-5.5-15.16
			c-6.39-0.7-13.7,3.42-19.86,4.68c-1.03,2.19-2.06,4.39-3.1,6.58c12.58-9.18,26.32-16.76,37.03-28.29
			c0.72-0.78,3.48-3.59,2.26-4.81c-1.17-1.17-4.19,1.61-4.81,2.26c-7.57,7.92-17.24,13.61-27.16,18.09c-1.9,0.86-4.33,2.96-5,5
			C1329.4,517.7,1329.82,518.7,1331.74,517.83L1331.74,517.83z"/>
	</g>
</g>
<g>
	<g>
		<path class="autograph__path" d="M994.71,666.73c75.27-21.04,152.28-36.41,230.21-43.11c21.99-1.89,44.04-3.04,66.11-3.45c2.07-0.04,4.02-1.94,5.24-3.46
			c0.33-0.41,2.78-4.07,0.9-4.04c-77.96,1.47-155.54,12.39-231.48,29.8c-22.19,5.09-44.24,10.74-66.16,16.87
			c-2.1,0.59-4.22,2.51-5.29,4.38C993.76,664.55,992.49,667.35,994.71,666.73L994.71,666.73z"/>
	</g>
</g>
</svg>
